<svg xmlns="http://www.w3.org/2000/svg" xmlns:xlink="http://www.w3.org/1999/xlink" width="105" zoomAndPan="magnify" viewBox="0 0 78.75 52.499999" height="70" preserveAspectRatio="xMidYMid meet" version="1.0"><defs><g/><clipPath id="54fdc0e8d7"><path d="M 0.246094 0 L 78.253906 0 L 78.253906 52.003906 L 0.246094 52.003906 Z M 0.246094 0 " clip-rule="nonzero"/></clipPath><clipPath id="cf0191eabd"><path d="M 24.171875 16.703125 L 28.628906 16.703125 L 28.628906 21.160156 L 24.171875 21.160156 Z M 24.171875 16.703125 " clip-rule="nonzero"/></clipPath></defs><g clip-path="url(#54fdc0e8d7)"><path fill="#ffffff" d="M 0.246094 0 L 78.253906 0 L 78.253906 52.003906 L 0.246094 52.003906 Z M 0.246094 0 " fill-opacity="1" fill-rule="nonzero"/><path fill="#ffffff" d="M 0.246094 0 L 78.253906 0 L 78.253906 52.003906 L 0.246094 52.003906 Z M 0.246094 0 " fill-opacity="1" fill-rule="nonzero"/></g><g fill="#2b2b2b" fill-opacity="1"><g transform="translate(8.888571, 27.786612)"><g><path d="M 8.933594 -0.160156 L 8.1875 -0.496094 L 8.1875 -7.328125 L 8.933594 -7.671875 L 8.933594 -7.820312 L 6.195312 -7.820312 C 6.195312 -7.800781 5.894531 -6.195312 5.183594 -3.554688 C 5.019531 -3.351562 4.890625 -3.457031 4.785156 -3.566406 L 2.972656 -7.820312 L 0.171875 -7.8125 C 0.171875 -7.8125 0.160156 -7.683594 0.171875 -7.660156 C 0.171875 -7.628906 0.679688 -7.445312 0.839844 -7.359375 C 0.65625 -2.089844 0.710938 -0.679688 0.171875 -0.152344 C 0.171875 -0.0742188 0.171875 -0.03125 0.171875 0.0117188 C 0.203125 0.0117188 -0.03125 0 0.894531 0 C 1.746094 0 2.597656 0 2.703125 0.0117188 C 2.703125 -0.0546875 2.703125 -0.128906 2.703125 -0.171875 C 1.929688 -0.496094 1.078125 -0.3125 0.980469 -5.019531 L 1.003906 -6.875 C 1.003906 -7.035156 1.023438 -7.066406 1.132812 -6.863281 L 4.210938 0 L 4.386719 0 C 4.386719 0 6.011719 -6.042969 6.085938 -6.398438 C 6.140625 -6.582031 6.335938 -6.5625 6.335938 -6.367188 C 6.347656 -5.992188 6.347656 -3.933594 6.347656 -0.496094 L 5.558594 -0.171875 L 5.558594 0.0117188 C 5.558594 0.0117188 6.3125 0 7.25 0 C 8.175781 0 8.933594 0.0117188 8.933594 0.0117188 Z M 8.933594 -0.160156 "/></g></g></g><g fill="#2b2b2b" fill-opacity="1"><g transform="translate(17.614798, 27.786612)"><g><path d="M 5.289062 -0.160156 L 4.535156 -0.507812 C 4.535156 -0.507812 4.546875 -3.136719 4.546875 -3.621094 C 4.546875 -4.34375 4.523438 -4.859375 4.375 -5.226562 C 3.890625 -6.484375 0.3125 -6.59375 0.128906 -4.234375 C 0.128906 -4.179688 0.160156 -4.0625 0.238281 -4.039062 C 0.527344 -3.953125 1.335938 -3.71875 1.929688 -3.640625 C 1.960938 -3.664062 2.027344 -3.71875 2.058594 -3.75 C 0.820312 -6.035156 2.359375 -6.183594 2.585938 -5.796875 C 2.703125 -5.582031 2.726562 -5.234375 2.714844 -3.597656 C 2.261719 -2.875 0.128906 -3.050781 0.128906 -1.304688 C 0.128906 0.257812 1.832031 0.539062 2.703125 -0.601562 L 2.703125 0 C 2.703125 0 3.179688 -0.0117188 3.597656 -0.0117188 C 4.535156 -0.0117188 5.289062 0 5.289062 0 Z M 1.800781 -1.660156 C 1.800781 -2.652344 2.371094 -2.953125 2.714844 -3.425781 C 2.714844 -2.996094 2.703125 -0.765625 2.703125 -0.765625 C 2.390625 -0.570312 1.800781 -0.667969 1.800781 -1.660156 Z M 1.800781 -1.660156 "/></g></g></g><g fill="#2b2b2b" fill-opacity="1"><g transform="translate(22.62428, 27.786612)"><g><path d="M 5.527344 -4.308594 C 5.332031 -6.796875 0.238281 -7.261719 0.238281 -3.058594 C 0.246094 0.355469 4.308594 1.164062 5.226562 -1.886719 L 5.097656 -1.9375 C 4.300781 -0.820312 2.230469 -0.699219 2.230469 -3.222656 C 2.230469 -6.875 5.183594 -6.734375 3.597656 -3.824219 C 3.632812 -3.792969 3.695312 -3.738281 3.726562 -3.71875 C 4.308594 -3.804688 5.128906 -4.03125 5.417969 -4.117188 C 5.496094 -4.136719 5.527344 -4.253906 5.527344 -4.308594 Z M 5.527344 -4.308594 "/></g></g></g><g fill="#2b2b2b" fill-opacity="1"><g transform="translate(28.010823, 27.786612)"><g><path d="M 5.191406 -5.226562 C 5.582031 -5.570312 5.992188 -5.851562 6.507812 -5.992188 L 6.507812 -6.140625 L 3.554688 -6.140625 L 3.554688 -5.992188 C 4.742188 -5.957031 4.828125 -5.191406 3.792969 -3.964844 C 3.210938 -3.285156 3.113281 -3.058594 2.554688 -3.113281 C 2.554688 -5.214844 2.554688 -7.84375 2.554688 -8.027344 C 2.5625 -8.273438 2.414062 -8.394531 2.1875 -8.402344 C 1.164062 -8.402344 0.691406 -8.402344 0.226562 -8.394531 L 0.226562 -8.242188 L 0.722656 -7.910156 L 0.722656 -0.496094 L 0.160156 -0.152344 L 0.160156 0.0117188 C 0.160156 0.0117188 0.691406 0 1.625 0 C 2.554688 0 3.058594 0.0117188 3.058594 0.0117188 L 3.058594 -0.152344 L 2.554688 -0.496094 C 2.554688 -0.496094 2.554688 -1.605469 2.554688 -2.984375 C 2.703125 -2.972656 2.972656 -2.964844 3.015625 -2.941406 C 3.082031 -2.910156 3.144531 -2.84375 3.199219 -2.738281 C 4.082031 -1.046875 4.429688 -0.453125 4.332031 -0.3125 C 4.289062 -0.257812 4.210938 -0.140625 4.082031 -0.140625 L 4.082031 0.0117188 C 4.210938 0 6.390625 0 6.496094 0.0117188 L 6.496094 -0.152344 C 6.347656 -0.238281 6.226562 -0.472656 5.65625 -1.519531 C 5.65625 -1.519531 4.308594 -3.996094 4.234375 -4.117188 C 4.386719 -4.289062 4.902344 -4.96875 5.191406 -5.226562 Z M 5.191406 -5.226562 "/></g></g></g><g fill="#2b2b2b" fill-opacity="1"><g transform="translate(34.29157, 27.786612)"><g/></g></g><g fill="#2b2b2b" fill-opacity="1"><g transform="translate(36.090645, 27.786612)"><g/></g></g><g fill="#2b2b2b" fill-opacity="1"><g transform="translate(37.891004, 27.786612)"><g><path d="M 6.796875 -6.085938 C 6.625 -7.734375 5.324219 -7.8125 3.675781 -7.84375 C 2.433594 -7.855469 0.335938 -7.84375 0.335938 -7.84375 L 0.335938 -7.683594 L 1.140625 -7.347656 C 1.140625 -7.347656 1.121094 -6.960938 1.121094 -6.691406 L 1.121094 -0.496094 L 0.335938 -0.171875 L 0.335938 0.0117188 C 0.335938 0.0117188 1.089844 0 2.027344 0 C 2.953125 0 3.707031 0.0117188 3.707031 0.0117188 L 3.707031 -0.171875 L 2.964844 -0.496094 L 2.929688 -2.972656 C 3.761719 -4.429688 6.949219 -4.09375 6.796875 -6.085938 Z M 2.929688 -6.691406 C 2.929688 -7.335938 3.230469 -7.648438 3.609375 -7.671875 C 4.246094 -7.714844 5.097656 -6.960938 5.019531 -5.902344 C 4.914062 -4.363281 3.847656 -4.515625 2.929688 -3.351562 Z M 2.929688 -6.691406 "/></g></g></g><g fill="#2b2b2b" fill-opacity="1"><g transform="translate(44.581101, 27.786612)"><g><path d="M 2.78125 -0.496094 C 2.78125 -0.496094 2.769531 -5.667969 2.769531 -5.765625 C 2.78125 -6 2.628906 -6.128906 2.414062 -6.128906 C 2.25 -6.140625 0.441406 -6.128906 0.441406 -6.128906 L 0.441406 -5.96875 L 0.9375 -5.644531 L 0.9375 -0.496094 L 0.367188 -0.152344 L 0.367188 0 C 1.347656 0 2.328125 0 3.273438 0.0117188 L 3.273438 -0.152344 Z M 2.671875 -8.1875 C 2.671875 -8.640625 2.292969 -9.007812 1.84375 -9.007812 C 1.390625 -9.007812 1.023438 -8.640625 1.023438 -8.1875 C 1.023438 -7.726562 1.390625 -7.359375 1.84375 -7.359375 C 2.292969 -7.359375 2.671875 -7.726562 2.671875 -8.1875 Z M 2.671875 -8.1875 "/></g></g></g><g fill="#2b2b2b" fill-opacity="1"><g transform="translate(47.845327, 27.786612)"><g><path d="M 5.796875 -0.496094 C 5.796875 -2.046875 5.808594 -3.015625 5.796875 -3.640625 C 5.796875 -4.914062 6.011719 -6.054688 4.179688 -6.054688 C 3.449219 -6.054688 2.789062 -5.859375 2.402344 -5.246094 C 2.402344 -5.679688 2.402344 -5.765625 2.402344 -5.785156 C 2.414062 -6.023438 2.261719 -6.152344 2.035156 -6.152344 C 1.886719 -6.164062 0.0742188 -6.152344 0.0742188 -6.152344 L 0.0742188 -5.992188 L 0.570312 -5.667969 L 0.570312 -0.496094 L 0 -0.152344 L 0.0117188 0.0117188 L 2.910156 0.0117188 L 2.910156 -0.152344 L 2.402344 -0.496094 C 2.402344 -0.496094 2.402344 -3.273438 2.402344 -4.878906 C 2.597656 -5.582031 3.726562 -5.644531 3.910156 -5.148438 C 3.996094 -4.902344 3.964844 -1.390625 3.964844 -0.496094 L 3.394531 -0.152344 L 3.40625 0.0117188 L 6.304688 0.0117188 L 6.304688 -0.152344 Z M 5.796875 -0.496094 "/></g></g></g><g fill="#2b2b2b" fill-opacity="1"><g transform="translate(53.985992, 27.786612)"><g><path d="M 5.515625 -4.308594 C 5.375 -6.097656 2.78125 -6.894531 1.226562 -5.570312 C 0.636719 -5.074219 0.226562 -4.253906 0.226562 -3.058594 C 0.238281 0.355469 4.300781 1.164062 5.214844 -1.886719 L 5.085938 -1.9375 C 4.363281 -0.925781 2.597656 -0.734375 2.273438 -2.574219 C 2.964844 -2.746094 5.128906 -4.039062 5.410156 -4.117188 C 5.484375 -4.136719 5.515625 -4.253906 5.515625 -4.308594 Z M 4.246094 -5.375 C 4.117188 -4.957031 3.597656 -4.210938 2.242188 -2.84375 C 2.230469 -2.964844 2.21875 -3.09375 2.21875 -3.222656 C 2.21875 -4.429688 2.542969 -5.226562 2.917969 -5.644531 C 3.449219 -6.214844 4.417969 -5.992188 4.246094 -5.375 Z M 4.246094 -5.375 "/></g></g></g><g fill="#2b2b2b" fill-opacity="1"><g transform="translate(59.383308, 27.786612)"><g><path d="M 5.730469 -0.496094 C 5.730469 -0.496094 5.722656 -7.726562 5.722656 -8.039062 C 5.730469 -8.273438 5.582031 -8.402344 5.367188 -8.414062 C 5.203125 -8.414062 5.011719 -8.414062 4.792969 -8.414062 C 4.265625 -8.414062 3.394531 -8.402344 3.394531 -8.402344 L 3.394531 -8.253906 L 3.890625 -7.917969 L 3.890625 -5.765625 C 3.78125 -5.839844 3.664062 -5.902344 3.535156 -5.949219 C 2.015625 -6.476562 0.160156 -5.65625 0.160156 -2.996094 C 0.160156 0.378906 3.101562 0.734375 3.890625 -0.722656 L 3.890625 0 L 6.238281 0 L 6.238281 -0.152344 Z M 3.050781 -0.335938 C 2.457031 -0.386719 2.273438 -1.808594 2.273438 -2.964844 C 2.273438 -3.933594 2.402344 -5.742188 3.371094 -5.742188 C 3.535156 -5.742188 3.726562 -5.6875 3.890625 -5.59375 L 3.890625 -0.957031 C 3.707031 -0.59375 3.273438 -0.3125 3.050781 -0.335938 Z M 3.050781 -0.335938 "/></g></g></g><g fill="#2b2b2b" fill-opacity="1"><g transform="translate(65.351603, 27.786612)"><g><path d="M 5.289062 -0.160156 L 4.535156 -0.507812 C 4.535156 -0.507812 4.546875 -3.136719 4.546875 -3.621094 C 4.546875 -4.34375 4.523438 -4.859375 4.375 -5.226562 C 3.890625 -6.484375 0.3125 -6.59375 0.128906 -4.234375 C 0.128906 -4.179688 0.160156 -4.0625 0.238281 -4.039062 C 0.527344 -3.953125 1.335938 -3.71875 1.929688 -3.640625 C 1.960938 -3.664062 2.027344 -3.71875 2.058594 -3.75 C 0.820312 -6.035156 2.359375 -6.183594 2.585938 -5.796875 C 2.703125 -5.582031 2.726562 -5.234375 2.714844 -3.597656 C 2.261719 -2.875 0.128906 -3.050781 0.128906 -1.304688 C 0.128906 0.257812 1.832031 0.539062 2.703125 -0.601562 L 2.703125 0 C 2.703125 0 3.179688 -0.0117188 3.597656 -0.0117188 C 4.535156 -0.0117188 5.289062 0 5.289062 0 Z M 1.800781 -1.660156 C 1.800781 -2.652344 2.371094 -2.953125 2.714844 -3.425781 C 2.714844 -2.996094 2.703125 -0.765625 2.703125 -0.765625 C 2.390625 -0.570312 1.800781 -0.667969 1.800781 -1.660156 Z M 1.800781 -1.660156 "/></g></g></g><g clip-path="url(#cf0191eabd)"><path fill="#2b2b2b" d="M 28.605469 18.917969 C 26.945312 19.222656 26.695312 19.472656 26.390625 21.136719 C 26.085938 19.472656 25.835938 19.222656 24.171875 18.917969 C 25.835938 18.613281 26.085938 18.363281 26.390625 16.703125 C 26.695312 18.363281 26.945312 18.613281 28.605469 18.917969 Z M 28.605469 18.917969 " fill-opacity="1" fill-rule="nonzero"/></g><g fill="#2b2b2b" fill-opacity="1"><g transform="translate(54.367108, 32.299391)"><g><path d="M 0.273438 0 L 1.1875 0 C 1.949219 0 2.574219 -0.617188 2.574219 -1.386719 C 2.574219 -2.152344 1.949219 -2.773438 1.1875 -2.773438 L 0.273438 -2.773438 Z M 0.882812 -0.539062 L 0.882812 -2.230469 L 1.183594 -2.230469 C 1.621094 -2.230469 1.964844 -1.867188 1.964844 -1.386719 C 1.964844 -0.90625 1.621094 -0.539062 1.183594 -0.539062 Z M 0.882812 -0.539062 "/></g></g></g><g fill="#2b2b2b" fill-opacity="1"><g transform="translate(57.586888, 32.299391)"><g><path d="M 1.964844 -2.234375 L 1.964844 -2.773438 L 0.296875 -2.773438 L 0.296875 0 L 1.964844 0 L 1.964844 -0.535156 L 0.90625 -0.535156 L 0.90625 -1.117188 L 1.8125 -1.117188 L 1.8125 -1.652344 L 0.90625 -1.652344 L 0.90625 -2.234375 Z M 1.964844 -2.234375 "/></g></g></g><g fill="#2b2b2b" fill-opacity="1"><g transform="translate(60.215639, 32.299391)"><g><path d="M 1.128906 0.0351562 C 1.644531 0.0351562 2.082031 -0.269531 2.082031 -0.785156 C 2.082031 -1.8125 0.808594 -1.558594 0.808594 -2.039062 C 0.808594 -2.195312 0.929688 -2.269531 1.078125 -2.269531 C 1.234375 -2.269531 1.390625 -2.179688 1.527344 -2.027344 L 1.9375 -2.417969 C 1.734375 -2.652344 1.421875 -2.808594 1.082031 -2.808594 C 0.640625 -2.808594 0.195312 -2.546875 0.195312 -1.992188 C 0.195312 -1.046875 1.472656 -1.273438 1.472656 -0.789062 C 1.472656 -0.636719 1.34375 -0.535156 1.132812 -0.535156 C 0.878906 -0.535156 0.679688 -0.679688 0.578125 -0.894531 L 0.0742188 -0.582031 C 0.253906 -0.234375 0.640625 0.0351562 1.128906 0.0351562 Z M 1.128906 0.0351562 "/></g></g></g><g fill="#2b2b2b" fill-opacity="1"><g transform="translate(62.881332, 32.299391)"><g><path d="M 0.296875 0 L 0.90625 0 L 0.90625 -2.773438 L 0.296875 -2.773438 Z M 0.296875 0 "/></g></g></g><g fill="#2b2b2b" fill-opacity="1"><g transform="translate(64.554277, 32.299391)"><g><path d="M 1.59375 -1.519531 L 1.59375 -1.042969 L 2.355469 -1.042969 C 2.226562 -0.753906 1.941406 -0.558594 1.597656 -0.558594 C 1.132812 -0.558594 0.773438 -0.917969 0.773438 -1.386719 C 0.773438 -1.851562 1.132812 -2.214844 1.597656 -2.214844 C 1.925781 -2.214844 2.195312 -2.039062 2.332031 -1.773438 L 2.859375 -2.046875 C 2.621094 -2.5 2.144531 -2.808594 1.597656 -2.808594 C 0.808594 -2.808594 0.175781 -2.171875 0.175781 -1.386719 C 0.175781 -0.601562 0.808594 0.0351562 1.597656 0.0351562 C 2.382812 0.0351562 3.023438 -0.601562 3.023438 -1.386719 L 3.023438 -1.519531 Z M 1.59375 -1.519531 "/></g></g></g><g fill="#2b2b2b" fill-opacity="1"><g transform="translate(68.226566, 32.299391)"><g><path d="M 2.265625 -2.773438 L 2.265625 -0.9375 L 0.902344 -2.773438 L 0.273438 -2.773438 L 0.273438 0 L 0.882812 0 L 0.882812 -1.839844 L 2.242188 0 L 2.867188 0 L 2.867188 -2.773438 Z M 2.265625 -2.773438 "/></g></g></g></svg>